<svg width="484" height="66" viewBox="0 0 484 66" fill="none" xmlns="http://www.w3.org/2000/svg">
<path d="M29.1338 58.2599C45.224 58.2599 58.2675 45.218 58.2675 29.1299C58.2675 13.0419 45.224 0 29.1338 0C13.0437 0 0 13.0419 0 29.1299C0 45.218 13.0437 58.2599 29.1338 58.2599Z" fill="#FC8001"/>
<path d="M29.188 1.62091C15.7457 1.62091 4.84326 12.5219 4.84326 25.9623C4.84326 27.2726 4.95134 28.5626 5.14722 29.8122C8.29501 21.5925 16.894 15.6827 27.0129 15.6827C35.4633 15.6827 42.8531 19.8026 46.8925 25.9488C46.9195 25.9488 46.9398 25.9488 46.9668 25.9488C49.5809 25.9488 51.7831 26.7795 53.4177 28.1979C53.4854 27.4617 53.5258 26.712 53.5258 25.9555C53.5258 12.5151 42.6303 1.62091 29.188 1.62091Z" fill="#FDCC01"/>
<path d="M53.4249 28.198C51.7834 26.7729 49.5881 25.9489 46.9739 25.9489C46.947 25.9489 46.9266 25.9489 46.8997 25.9489C39.7395 25.9894 32.2009 32.2099 30.046 39.8824C28.8976 43.9687 29.5057 47.6427 31.4037 50.1958C30.6744 50.2634 29.938 50.3038 29.1883 50.3038C17.0564 50.3038 6.99837 41.429 5.15427 29.8122C4.32342 31.9803 3.87085 34.3035 3.87085 36.7282C3.87085 42.6852 6.59308 48.0546 10.9703 51.8843C13.6722 54.0389 16.7592 55.7274 20.1164 56.8213C22.9602 57.7467 25.9932 58.2533 29.141 58.2533C37.875 58.2533 45.704 54.4035 51.0404 48.3181C52.8776 46.2176 54.4245 43.8606 55.6067 41.294C55.7822 40.8279 55.9376 40.362 56.066 39.8824C57.4371 34.9924 56.289 30.6834 53.4249 28.198Z" fill="#FD0024"/>
<path d="M210.937 26.827V50.8172C210.937 51.0603 210.742 51.2561 210.5 51.2561H204.91C204.667 51.2561 204.472 51.0603 204.472 50.8172V28.9275C204.472 22.0046 200.687 17.9252 194.175 17.9252C187.979 17.9252 183.13 22.241 183.13 29.0829V50.8172C183.13 51.0603 182.934 51.2561 182.692 51.2561H177.102C176.86 51.2561 176.664 51.0603 176.664 50.8172V28.9275C176.664 22.0046 172.88 17.9252 166.367 17.9252C160.333 17.9252 155.282 22.0789 155.282 29.0829V50.8172C155.282 51.0603 155.087 51.2561 154.844 51.2561H149.295C149.052 51.2561 148.857 51.0603 148.857 50.8172V13.0218C148.857 12.7787 149.052 12.5828 149.295 12.5828H154.804C155.046 12.5828 155.241 12.7787 155.241 13.0218V16.2434C155.241 16.6487 155.74 16.8378 156.003 16.5339C159.08 13.0286 163.518 11.7858 167.512 11.7858C173.56 11.7858 178.395 14.3659 180.988 18.6816C181.163 18.9721 181.567 18.9721 181.743 18.6816C184.901 13.5013 190.444 11.7858 195.333 11.7858C204.587 11.7926 210.937 17.8036 210.937 26.827Z" fill="white"/>
<path d="M256.262 31.3792C256.262 42.7325 248.018 50.9658 237.519 50.9658C232.084 50.9658 227.949 49.0342 225.053 45.988C224.784 45.7045 224.305 45.9069 224.305 46.2987V65.5611C224.305 65.8042 224.11 66 223.868 66H218.318C218.076 66 217.881 65.8042 217.881 65.5611V13.0287C217.881 12.7855 218.076 12.5896 218.318 12.5896H223.868C224.11 12.5896 224.305 12.7855 224.305 13.0287V16.4597C224.305 16.8514 224.784 17.054 225.053 16.7703C227.956 13.7311 232.091 11.7927 237.519 11.7927C248.012 11.7927 256.262 20.0258 256.262 31.3792ZM223.908 31.3792C223.908 39.0921 229.195 44.9141 236.771 44.9141C244.543 44.9141 249.635 38.8625 249.635 31.3792C249.635 23.9025 244.429 17.8847 236.771 17.8847C229.195 17.8847 223.908 23.6999 223.908 31.3792Z" fill="white"/>
<path d="M329.153 20.5254C329.029 20.7483 328.754 20.8159 328.54 20.6808C326.068 19.1274 321.527 17.4524 316.855 17.4524C311.724 17.4524 308.41 19.6272 308.41 23.0312C308.41 26.0367 311.13 27.4213 315.67 27.9752L320.012 28.529C327.979 29.596 332.681 32.9596 332.681 39.1732C332.681 46.3323 326.29 50.9657 316.074 50.9657C311.561 50.9657 305.5 49.9053 300.625 46.3864C300.435 46.2514 300.388 45.9811 300.509 45.7853L303.034 41.7194C303.168 41.5033 303.46 41.4494 303.669 41.5979C306.43 43.6444 310.12 45.3057 316.113 45.3057C322.27 45.3057 326.054 43.2864 326.054 39.5717C326.054 36.8024 323.609 35.06 318.519 34.425L314.179 33.9119C305.775 32.8853 301.714 29.0826 301.714 23.3891C301.714 16.1894 307.676 11.8331 316.786 11.8331C322.526 11.8331 327.778 13.3189 331.4 15.6828C331.595 15.8112 331.658 16.0678 331.543 16.2704L329.153 20.5254Z" fill="white"/>
<path d="M362.057 20.5254C361.936 20.7483 361.661 20.8159 361.443 20.6808C358.974 19.1274 354.434 17.4524 349.759 17.4524C344.627 17.4524 341.313 19.6272 341.313 23.0312C341.313 26.0367 344.036 27.4213 348.573 27.9752L352.918 28.529C360.885 29.596 365.588 32.9596 365.588 39.1732C365.588 46.3323 359.194 50.9657 348.978 50.9657C344.468 50.9657 338.404 49.9053 333.528 46.3864C333.341 46.2514 333.294 45.9811 333.415 45.7853L335.94 41.7194C336.075 41.5033 336.363 41.4494 336.572 41.5979C339.333 43.6444 343.024 45.3057 349.019 45.3057C355.173 45.3057 358.96 43.2864 358.96 39.5717C358.96 36.8024 356.515 35.06 351.422 34.425L347.086 33.9119C338.682 32.8853 334.62 29.0826 334.62 23.3891C334.62 16.1894 340.579 11.8331 349.693 11.8331C355.429 11.8331 360.684 13.3189 364.306 15.6828C364.501 15.8112 364.562 16.0678 364.449 16.2704L362.057 20.5254Z" fill="white"/>
<path d="M97.1747 41.0575C97.0064 40.8886 96.7369 40.8886 96.5686 41.0575C91.0329 46.3053 83.2003 46.1565 78.0012 40.9425C72.6739 35.6001 72.6469 27.5698 78.1964 21.9977C83.6447 16.5337 91.4234 16.4864 96.7504 21.5316C96.9256 21.6938 97.1882 21.7005 97.3565 21.5316L101.034 17.844C101.209 17.6684 101.209 17.378 101.027 17.2024C92.9994 9.46234 81.3012 9.54338 73.536 17.3239C65.6699 25.2126 65.6969 37.1604 73.7313 45.2179C81.6513 53.1605 93.363 53.3293 101.236 45.7715C101.418 45.6027 101.418 45.3057 101.243 45.1299L97.1747 41.0575Z" fill="white"/>
<path d="M110.866 31.3654C111.102 31.3654 111.291 31.1765 111.298 30.9334C111.513 23.2945 117.157 17.8508 124.504 17.8508C132.04 17.8508 137.724 23.5107 137.724 31.3858C137.724 39.1124 132.256 44.6641 124.935 44.8734C124.699 44.8803 124.504 45.0695 124.504 45.3057V50.5197C124.504 50.7697 124.713 50.9724 124.955 50.9655C136.088 50.7427 144.311 42.3948 144.311 31.3858C144.311 20.2282 135.865 11.7993 124.504 11.7993C113.304 11.7993 104.9 19.9851 104.664 30.9062C104.657 31.1561 104.866 31.3654 105.108 31.3654H110.866Z" fill="white"/>
<path d="M296.211 12.5828H290.661C290.419 12.5828 290.224 12.7786 290.224 13.0218V16.3785C286.811 13.3122 282.265 11.4954 277.131 11.4954C266.007 11.4954 257.602 19.9649 257.602 31.3588C257.602 42.5909 265.764 51.0199 276.661 51.2561C276.911 51.263 277.12 51.0534 277.12 50.8103V45.0425C277.12 44.806 276.93 44.6171 276.688 44.6102C269.071 44.3941 263.643 38.7343 263.643 31.3588C263.643 23.8011 269.287 18.1008 277.139 18.1008C283.833 18.1008 290.232 22.7948 290.232 28.1506V50.8103C290.232 51.0534 290.427 51.2495 290.669 51.2495H296.219C296.461 51.2495 296.656 51.0534 296.656 50.8103V13.015C296.656 12.7854 296.455 12.5828 296.211 12.5828Z" fill="white"/>
<path d="M128.673 35.418L130.552 28.394C130.956 26.8879 129.582 25.51 128.08 25.9153L121.076 27.7997C119.574 28.2048 119.069 30.0825 120.174 31.1902L125.299 36.3299C126.396 37.4242 128.275 36.9242 128.673 35.418Z" fill="#FDCC01"/>
<path d="M379.838 46.6023C379.838 49.2134 377.726 51.3301 375.122 51.3301C372.518 51.3301 370.408 49.2134 370.408 46.6023C370.408 43.9912 372.518 41.8745 375.122 41.8745C377.726 41.8745 379.838 43.9912 379.838 46.6023Z" fill="white"/>
<path d="M480.433 37.3362C475.874 37.3362 473.778 34.9926 473.778 30.4202V2.28302H459.811V23.1798C456.64 16.3448 449.721 11.6035 441.702 11.6035C433.68 11.6035 426.77 16.338 423.591 23.1798V12.029H409.799V31.6899C409.799 35.2357 407.94 37.64 404.822 37.64C401.703 37.64 399.844 35.2357 399.844 31.6899V12.029H385.877V31.8722C385.877 44.0159 393.313 51.6546 404.822 51.6546C414.062 51.6546 420.662 46.508 422.823 38.1804C425.524 46.0218 432.954 51.6546 441.694 51.6546C450.321 51.6546 457.669 46.1703 460.457 38.4912C462.517 47.4064 469.246 51.3507 478.263 51.3507H481.8V37.3428H480.433V37.3362ZM441.702 37.64C438.402 37.64 435.707 34.9318 435.707 31.6291C435.707 28.3195 438.408 25.618 441.702 25.618C445.002 25.618 447.694 28.3263 447.694 31.6291C447.694 34.9318 444.994 37.64 441.702 37.64Z" fill="white"/>
</svg>
